<svg xmlns="http://www.w3.org/2000/svg" width="39.5" height="36" viewBox="0 0 39.5 36">
  <g id="Group_839" data-name="Group 839" transform="translate(-63.5 -674)">
    <g id="Group_756" data-name="Group 756" transform="translate(57 656)" opacity="0.2">
      <line id="Line_121" data-name="Line 121" x2="34" transform="translate(11 48)" fill="none" stroke="#5bde9a" stroke-linecap="round" stroke-miterlimit="10" stroke-width="2"/>
      <line id="Line_122" data-name="Line 122" x2="32" transform="translate(11 36)" fill="none" stroke="#5bde9a" stroke-linecap="round" stroke-miterlimit="10" stroke-width="2"/>
      <line id="Line_123" data-name="Line 123" x2="18" transform="translate(11 25)" fill="none" stroke="#5bde9a" stroke-linecap="round" stroke-miterlimit="10" stroke-width="2"/>
      <line id="Line_124" data-name="Line 124" y1="19" transform="translate(40 34)" fill="none" stroke="#5bde9a" stroke-linecap="round" stroke-miterlimit="10" stroke-width="2"/>
      <line id="Line_125" data-name="Line 125" y1="32" transform="translate(28 21)" fill="none" stroke="#5bde9a" stroke-linecap="round" stroke-miterlimit="10" stroke-width="2"/>
      <line id="Line_126" data-name="Line 126" y1="34" transform="translate(16 19)" fill="none" stroke="#5bde9a" stroke-linecap="round" stroke-miterlimit="10" stroke-width="2"/>
    </g>
    <g id="Group_757" data-name="Group 757" transform="translate(14.598 7.919)">
      <g id="Group_758" data-name="Group 758" transform="translate(-8 -9)">
        <path id="Path_1188" data-name="Path 1188" d="M38.655,12.024h0A8.524,8.524,0,0,0,26.2,23.655a38.493,38.493,0,0,0,6.079,5.319.532.532,0,0,0,.7,0,35.453,35.453,0,0,0,6.079-5.26A8.578,8.578,0,0,0,38.655,12.024Zm-6.02,9.527A3.565,3.565,0,1,1,36.2,17.986,3.58,3.58,0,0,1,32.634,21.551Z" transform="translate(44.8 666)" fill="#00c861"/>
        <circle id="Ellipse_152" data-name="Ellipse 152" cx="2.221" cy="2.221" r="2.221" transform="translate(74.284 683.967) rotate(-45)" fill="#00c861" opacity="0.6"/>
      </g>
      <g id="Group_759" data-name="Group 759" transform="translate(-20 4)">
        <path id="Path_1188-2" data-name="Path 1188" d="M38.655,12.024h0A8.524,8.524,0,0,0,26.2,23.655a38.493,38.493,0,0,0,6.079,5.319.532.532,0,0,0,.7,0,35.453,35.453,0,0,0,6.079-5.26A8.578,8.578,0,0,0,38.655,12.024Zm-6.02,9.527A3.565,3.565,0,1,1,36.2,17.986,3.58,3.58,0,0,1,32.634,21.551Z" transform="translate(44.8 666)" fill="#00c861"/>
        <circle id="Ellipse_152-2" data-name="Ellipse 152" cx="2.221" cy="2.221" r="2.221" transform="translate(74.284 683.967) rotate(-45)" fill="#00c861" opacity="0.6"/>
      </g>
    </g>
  </g>
</svg>
