<svg xmlns="http://www.w3.org/2000/svg" width="38.975" height="35.172" viewBox="0 0 38.975 35.172">
  <g id="Group_840" data-name="Group 840" transform="translate(-154 -681)">
    <g id="Server_Lock" data-name="Server Lock" transform="translate(152 679)">
      <path id="Path_1180" data-name="Path 1180" d="M27,2H5A3,3,0,0,0,2,5V9a1,1,0,0,0,1,1H29a1,1,0,0,0,1-1V5A3,3,0,0,0,27,2Z" fill="#d8e1ef"/>
      <rect id="Rectangle_452" data-name="Rectangle 452" width="28" height="8" rx="1" transform="translate(2 12)" fill="#d8e1ef"/>
      <path id="Path_1181" data-name="Path 1181" d="M25,22H3a1,1,0,0,0-1,1v4a3,3,0,0,0,3,3H25a1,1,0,0,0,1-1V23A1,1,0,0,0,25,22Z" fill="#d8e1ef"/>
      <path id="Path_1182" data-name="Path 1182" d="M11,17H7a1,1,0,0,1,0-2h4a1,1,0,0,1,0,2Z" fill="#0593ff"/>
      <path id="Path_1183" data-name="Path 1183" d="M11,7H7A1,1,0,0,1,7,5h4a1,1,0,0,1,0,2Z" fill="#0593ff"/>
      <path id="Path_1184" data-name="Path 1184" d="M11,27H7a1,1,0,0,1,0-2h4a1,1,0,0,1,0,2Z" fill="#0593ff"/>
    </g>
    <g id="Group_760" data-name="Group 760" transform="matrix(0.966, 0.259, -0.259, 0.966, 134.472, 638.854)">
      <g id="Group_744" data-name="Group 744" transform="translate(40.588 35.588)">
        <path id="Path_1157" data-name="Path 1157" d="M64.292,42.28a2.715,2.715,0,0,0,3.873.683l1.215,1.823a2.327,2.327,0,0,1-.608,3.19L49.786,60.962a2.327,2.327,0,0,1-3.19-.608l-1.215-1.823a2.809,2.809,0,0,0,.759-3.873,2.715,2.715,0,0,0-3.873-.683l-1.291-1.823a2.327,2.327,0,0,1,.608-3.19L60.646,35.977a2.327,2.327,0,0,1,3.19.608l1.215,1.823A2.881,2.881,0,0,0,64.292,42.28Z" transform="translate(-40.588 -35.588)" fill="#4d74f5"/>
        <path id="Path_1158" data-name="Path 1158" d="M69.288,38.513l-1.215-1.823a2.373,2.373,0,0,0-3.19-.608l-6.076,4.1-.3.228-.3.228.3.38a.354.354,0,0,0,.532.076h.076l.683.987h-.076a.354.354,0,0,0-.076.532l.532.759a.354.354,0,0,0,.532.076h.076l.683.987H61.39a.354.354,0,0,0-.076.532l.532.759a.354.354,0,0,0,.532.076h.076l.683.987H63.06a.354.354,0,0,0-.076.532l.532.759a.354.354,0,0,0,.532.076h.076l.683.987h-.076a.354.354,0,0,0-.076.532l.532.759a.354.354,0,0,0,.532.076h.076l.683.987H66.4a.354.354,0,0,0-.076.532l.3.38.38-.228.3-.228,6.076-4.1A2.373,2.373,0,0,0,74,44.665L72.477,43.07a2.85,2.85,0,0,1-3.873-.683A2.78,2.78,0,0,1,69.288,38.513Z" transform="translate(-44.825 -35.619)" fill="#b3c4fc"/>
        <path id="Path_1159" data-name="Path 1159" d="M73.827,50.593l-3.114,2.126a.367.367,0,0,1-.532-.076l-.608-.911a.367.367,0,0,1,.076-.532l3.114-2.126a.367.367,0,0,1,.532.076l.608.911A.367.367,0,0,1,73.827,50.593Z" transform="translate(-47.541 -38.812)" fill="#4d74f5"/>
        <g id="Group_743" data-name="Group 743" transform="translate(16.754 3.169)">
          <path id="Path_1160" data-name="Path 1160" d="M65.194,39.791l-2.43,1.671c-.152.076-.152.3,0,.456h0a.365.365,0,0,0,.456.152L65.65,40.4c.152-.076.152-.3,0-.456h0C65.5,39.791,65.346,39.715,65.194,39.791Z" transform="translate(-62.65 -39.761)" fill="#4d74f5"/>
          <path id="Path_1161" data-name="Path 1161" d="M66.194,41.291l-2.43,1.671c-.152.076-.152.3,0,.456a.365.365,0,0,0,.456.152L66.65,41.9c.152-.076.152-.3,0-.456S66.346,41.215,66.194,41.291Z" transform="translate(-62.891 -40.122)" fill="#4d74f5"/>
        </g>
        <rect id="Rectangle_444" data-name="Rectangle 444" width="1.975" height="4.025" transform="translate(10.372 7.13) rotate(-34.311)" fill="#ffcd57"/>
        <path id="Path_1162" data-name="Path 1162" d="M54.166,63.884,51.66,65.631c-.152.076-.152.3-.076.456h0c.076.152.3.152.456.076l2.506-1.747c.152-.076.152-.3.076-.456h0C54.546,63.808,54.318,63.808,54.166,63.884Z" transform="translate(-43.222 -42.383)" fill="#c7e9ff"/>
      </g>
    </g>
  </g>
</svg>
