<svg xmlns="http://www.w3.org/2000/svg" width="20.017" height="22.876" viewBox="0 0 20.017 22.876">
  <path id="_7122530_receipt_refund_icon" data-name="7122530_receipt_refund_icon" d="M5.86,2A2.86,2.86,0,0,0,3,4.86V24.876l5-2.86,5,2.86,5-2.86,5,2.86V4.86A2.86,2.86,0,0,0,20.157,2Zm6.73,5.3a1.43,1.43,0,0,0-2.022-2.022L6.278,9.568a1.43,1.43,0,0,0,0,2.022l4.289,4.289a1.43,1.43,0,0,0,2.022-2.022l-1.849-1.849h2.267A4.289,4.289,0,0,1,17.3,16.3v1.43a1.43,1.43,0,0,0,2.86,0V16.3a7.149,7.149,0,0,0-7.149-7.149H10.741Z" transform="translate(-3 -2)" fill="#098b71" fill-rule="evenodd"/>
</svg>
