<svg xmlns="http://www.w3.org/2000/svg" width="24" height="15.75" viewBox="0 0 24 15.75">
  <g id="_5243663_binocular_field_glass_magnifying_glass_search_spyglass_icon" data-name="5243663_binocular_field glass_magnifying glass_search_spyglass_icon" transform="translate(-8 -16.25)">
    <path id="Path_1189" data-name="Path 1189" d="M22.345,17.11A2.541,2.541,0,0,1,24.73,18.8a1.926,1.926,0,0,0-3.6-1.365A2.447,2.447,0,0,1,22.345,17.11Z" transform="translate(-6.565)" fill="#7c64bd"/>
    <path id="Path_1190" data-name="Path 1190" d="M37.945,17.11A2.541,2.541,0,0,0,35.56,18.8a1.926,1.926,0,0,1,3.6-1.365A2.447,2.447,0,0,0,37.945,17.11Z" transform="translate(-13.725)" fill="#7c64bd"/>
    <path id="Path_1191" data-name="Path 1191" d="M30.86,24.985c-.1-.145-4.37-5.69-4.485-5.81a2.538,2.538,0,0,0-4.65.845,6.3,6.3,0,0,0-3.445,0,2.538,2.538,0,0,0-4.65-.845c-.115.125-4.39,5.665-4.485,5.81A4.776,4.776,0,1,0,17.55,28.3c.015-.1.29-2.8.5-4.88a3.285,3.285,0,0,1,3.9,0c.2,2.08.475,4.77.5,4.875A4.777,4.777,0,0,0,32,28.075,4.728,4.728,0,0,0,30.86,24.985ZM20,22.17a.84.84,0,1,1,.84-.84A.839.839,0,0,1,20,22.17Z" transform="translate(0 -0.86)" fill="#a38fd8"/>
    <circle id="Ellipse_153" data-name="Ellipse 153" cx="4.78" cy="4.78" r="4.78" transform="translate(8 22.44)" fill="#7c64bd"/>
    <circle id="Ellipse_154" data-name="Ellipse 154" cx="3.78" cy="3.78" r="3.78" transform="translate(9 23.44)" fill="#fff"/>
    <circle id="Ellipse_155" data-name="Ellipse 155" cx="4.78" cy="4.78" r="4.78" transform="translate(22.44 22.44)" fill="#7c64bd"/>
    <circle id="Ellipse_156" data-name="Ellipse 156" cx="3.78" cy="3.78" r="3.78" transform="translate(23.44 23.44)" fill="#fff"/>
    <path id="Path_1192" data-name="Path 1192" d="M13.78,31.63a3.787,3.787,0,0,1,3.745,3.28,4.129,4.129,0,0,0,.035-.5,3.78,3.78,0,0,0-7.56,0,4.129,4.129,0,0,0,.035.5A3.786,3.786,0,0,1,13.78,31.63Z" transform="translate(-1 -7.19)" fill="#d2f0ea"/>
    <path id="Path_1193" data-name="Path 1193" d="M42.66,31.63A3.787,3.787,0,0,1,46.4,34.91a4.129,4.129,0,0,0,.035-.5,3.78,3.78,0,1,0-7.56,0,4.129,4.129,0,0,0,.035.5A3.778,3.778,0,0,1,42.66,31.63Z" transform="translate(-15.44 -7.19)" fill="#d2f0ea"/>
  </g>
</svg>
