<svg xmlns="http://www.w3.org/2000/svg" width="26.985" height="27.467" viewBox="0 0 26.985 27.467">
  <g id="File_Lock" data-name="File Lock" transform="translate(-6.578 -4)">
    <path id="Path_1175" data-name="Path 1175" d="M26.6,7.433V31.467H11.722A5.883,5.883,0,0,1,6,25.539V4H23.167A3.433,3.433,0,0,1,26.6,7.433Z" transform="translate(0.578)" fill="#d8e1ef"/>
    <path id="Path_1176" data-name="Path 1176" d="M31.108,23a1.144,1.144,0,0,1,1.053,1.614,6.822,6.822,0,0,1-6.283,4.109H11a6.867,6.867,0,0,0,6.592-4.933A1.144,1.144,0,0,1,18.679,23Z" transform="translate(1.3 2.745)" fill="#0593ff"/>
    <rect id="Rectangle_448" data-name="Rectangle 448" width="12" height="11" rx="2" transform="translate(11 11)" fill="#0593ff"/>
  </g>
</svg>
